<?xml version="1.0" encoding="UTF-8"?>
<!DOCTYPE svg PUBLIC "-//W3C//DTD SVG 1.1//EN" "http://www.w3.org/Graphics/SVG/1.1/DTD/svg11.dtd">
<!-- Creator: CorelDRAW 2021 (64-Bit) -->
<svg xmlns="http://www.w3.org/2000/svg" xml:space="preserve" width="215.9mm" height="279.4mm" version="1.1" style="shape-rendering:geometricPrecision; text-rendering:geometricPrecision; image-rendering:optimizeQuality; fill-rule:evenodd; clip-rule:evenodd"
viewBox="0 0 21590 27940"
 xmlns:xlink="http://www.w3.org/1999/xlink"
 xmlns:xodm="http://www.corel.com/coreldraw/odm/2003">
 <defs>
  <style type="text/css">
   <![CDATA[
    .fil0 {fill:#5764F0}
   ]]>
  </style>
 </defs>
 <g id="Capa_x0020_1">
  <metadata id="CorelCorpID_0Corel-Layer"/>
  <path class="fil0" d="M2239.32 17150.77l0 1224.57 69.03 907.22c39.48,39.3 16.37,12.96 54.9,43.95 18.38,14.79 35.34,25.31 62.07,45.64 833.98,634.19 2050.59,1318.47 3011.11,1701.66 349.83,139.56 844.87,354.75 1222.53,436.05l482.52 -734.62c90.14,-153.96 385.19,-653.89 430.2,-792.82 -296.25,-103.84 -1286.56,-554.92 -1448.09,-717.93 68.93,-56.84 129.56,-92.44 194.32,-148.23 224.2,-193.15 171.98,-107.36 705.92,112.67 325.71,134.22 680.45,257.98 1033.38,359.13 1559.87,447.05 3405.62,533.77 4994.06,136.17 1115.58,-279.25 1132.3,-355.8 2084.28,-727.83 52.47,30.76 327.45,240.33 357.27,278.47 -347.19,222.16 -1013.54,568.55 -1450.59,704.8 192.13,541.99 766.51,1250.61 911.41,1529.81 832.93,-155.27 2615.88,-1070.2 3371.07,-1546.97 165.62,-104.56 332.05,-206.23 492.55,-322.18l423.27 -304.41c46.73,-36.28 18.07,-1.55 60.37,-54.33l76.26 -1105.62 0 -985.49c-50.48,-122.76 -55.57,-687.71 -74.34,-879.94 -225.36,-2307.98 -965.12,-4386.7 -2150.96,-6331.4 -414.28,-679.4 -294.43,-600.84 -999.32,-885.65 -453.25,-183.14 -905.84,-347.26 -1396.88,-487.82 -402.06,-115.08 -1113.88,-323.9 -1526.7,-353.49 -108.92,117.31 -381.73,734.8 -457.22,929.76 -243.56,4.48 -682.27,-78.41 -956.62,-101.79 -632.01,-53.86 -1403.88,-54.34 -2035.82,0.77 -259.53,22.63 -708.5,107.1 -934.01,100.47 -143.3,-341.48 -301.09,-629.2 -450.61,-932.19 -1127.01,151.19 -2421.36,607.51 -3424.7,1057.5 -177.82,79.75 -176.1,131.7 -327.22,379.52 -1131.3,1855.15 -1884.97,3559.45 -2232.13,5780.48 -42.81,273.91 -79.58,554.25 -105.97,834.7 -15.12,160.69 -36.54,754.51 -65.34,849.37zm11168.44 -3338.83c-815.61,149.52 -1401.34,984.52 -1277.88,1978.3 104.44,840.72 814.05,1661.08 1787.12,1476.26 801.52,-152.24 1364.74,-984.59 1261.61,-1971.06 -88.84,-849.82 -802.92,-1660.94 -1770.85,-1483.5zm-5696.17 0.93c-816.74,160.89 -1394.15,963.81 -1275.79,1975.33 97.04,829.23 819.76,1670.55 1779.53,1477.78 812.17,-163.12 1377.25,-976.72 1268.75,-1976.08 -90.91,-837.44 -806.57,-1667.33 -1772.49,-1477.03z"/>
 </g>
</svg>
