<?xml version="1.0" encoding="UTF-8"?>
<!DOCTYPE svg PUBLIC "-//W3C//DTD SVG 1.1//EN" "http://www.w3.org/Graphics/SVG/1.1/DTD/svg11.dtd">
<!-- Creator: CorelDRAW 2021 (64-Bit) -->
<svg xmlns="http://www.w3.org/2000/svg" xml:space="preserve" width="215.9mm" height="279.4mm" version="1.1" style="shape-rendering:geometricPrecision; text-rendering:geometricPrecision; image-rendering:optimizeQuality; fill-rule:evenodd; clip-rule:evenodd"
viewBox="0 0 21590 27940"
 xmlns:xlink="http://www.w3.org/1999/xlink"
 xmlns:xodm="http://www.corel.com/coreldraw/odm/2003">
 <defs>
  <style type="text/css">
   <![CDATA[
    .fil1 {fill:#4ECA5D}
    .fil0 {fill:#E7E7E7}
   ]]>
  </style>
 </defs>
 <g id="Capa_x0020_1">
  <metadata id="CorelCorpID_0Corel-Layer"/>
  <g id="_2558179521856">
   <path class="fil0" d="M3230.93 18134.52c0,216.67 -20.17,389.61 -84.15,562.96 -32.93,89.11 -61.12,109.14 -92.65,209.41 -63.01,200.05 -36.92,370.54 -152.57,645.42 -89.7,213.26 -66.13,335.12 -139.07,471.12 -40.64,75.76 -48.03,-60.72 -50.9,181.98l-120.57 435.51c-29.84,129.21 -21.5,122.94 -65.27,241.31 -84.55,228.87 -44.72,399.75 -144.59,578.38 -130.34,233.21 -49.1,604.68 118.47,776.32 216.31,221.61 676.27,193.12 993.44,179.59 200.82,-8.61 335.1,-27.43 500.33,-103.11 94.86,-43.42 115.29,-57.56 191.32,-76.43l1683.51 -398.04 -171.59 -57.8c231.86,-13.89 343.97,-81.89 566.28,-116.71 928.84,-145.27 1431.77,264.26 2454.12,572.95 113.26,34.23 209.19,26.52 329.8,51.53 635.68,131.63 494.37,87.6 1025.08,160.27 593.75,81.26 1771.34,104.83 2399.27,-84.28 8.87,-2.69 18.68,-6.36 27.38,-9.27 8.6,-2.83 18.01,-7.22 26.57,-10.18l257.34 -51.53c113.72,-9.94 181.96,-19.22 283.75,-54.38 282.01,-97.41 383.71,-236.84 766.88,-326.8 250.94,-58.93 532.68,-167.44 760.74,-302.26 9.72,-5.78 36.56,-23.34 46.82,-28.76l231.13 -84.19c14.66,-67.07 43.6,72.13 -17.73,-19.13 -42.83,-63.71 -37.23,28.58 -20.21,-41.13 187.65,-54.4 454.5,-117.12 584.61,-251.45 5.42,-5.6 12.09,-14.82 17.6,-20.48 7.67,-7.92 30.33,-31.22 38.4,-38.93l201.71 -161.25c4.8,-2.19 16.05,-4.7 20.79,-6.68 4.62,-1.83 15.63,-4.2 20.16,-6.04l377.79 -271.46c132.53,-72.99 32.21,-6.16 132.13,-92.99l136.47 -124.59c62.78,-85.49 -23.43,5.01 -7.88,-82.75 11.64,-65.69 65.77,-72.23 119.76,-107.89l570.41 -493.84c26.61,-37.82 18.01,-30.96 44.79,-69.48l101.85 -127.3c5.37,-5.64 13.71,-13.21 19.17,-18.72l512.57 -662.53c134.36,-273.93 197.01,-299.56 307.09,-491.19 95.43,-166.13 170.17,-352.2 291.31,-504.19l105.03 -160.13c105.64,-189.02 125.13,-457.93 174.02,-638.85 54.16,-200.32 91.71,-155.26 155.19,-330.39 117.44,-323.85 318.21,-914.37 341.82,-1257.27 9.54,-138.57 48.2,-303.41 80.61,-446.11 31.31,-138.21 34.98,-58.06 57.13,-202.82 12.49,-81.74 5.28,-178.6 9.18,-262.73 16.89,-367.09 105.01,-281.24 99.14,-950.66 -2.01,-226.27 -34.09,-246.89 -67.83,-420.58 -42.29,-217.93 -20.47,-602.76 -85.93,-831.03 -54.22,-189.08 -2.56,-427.12 -99.29,-619.07l-256.73 -727.17c-24.69,-91.64 -41.63,-78.1 -70.92,-191.28 -33.65,-129.75 5.64,-57.35 -29.89,-169.08 -39.69,-124.93 -40.41,-44.01 -79.57,-188.59l-51.76 -1.92c-48.6,-0.05 28.91,-126.22 -72.89,25.08 -21.63,-208.11 -12.09,-95.7 -77.9,-223.69 -50.95,-99.12 -45.49,-121.7 -80.7,-223.19 -71.65,-206.23 12.99,-21.41 -126.53,-179.44 -35.63,-40.28 -105.97,-158.69 -132.58,-205.46 -118.5,-208.48 -184.18,-414.22 -331.19,-620.68 -68.6,-96.37 -88.4,-90.64 -108.65,-233.25l-47.5 130.38c-24.5,-83.03 -45.79,-71.06 -61.82,-96.38l-54.54 -92.79c-91.34,-200.82 45.09,-42.92 -137.89,-209.32 -134.02,-121.88 -84.15,-156.77 -219.42,-239.52 -39.11,-23.98 -76.17,-30.34 -118.28,-67.39 -52.64,-46.37 -83.38,-116.67 -133.87,-168.82 -154.27,-159.38 -311.8,-365.52 -495.89,-476.64 -3.45,-155.51 -35.86,-67.03 50.39,-141.89 -78.49,-10.48 -130.25,-25.09 -199.15,-63.98 -121.29,-68.41 -196.78,-192.34 -346.16,-299.15l-127.02 -100.59c-52.07,-37.55 -138.58,-73.71 -167.88,-98.89 -145.25,-124.46 12.94,-60.09 -125.81,-174.87 -116.8,-96.64 -274.38,-135.97 -426.04,-146.46 33.38,-35.81 61.91,-63.85 97.39,-95.8 -313.27,-39.97 -548.39,-275.09 -743.93,-312.37 -145.06,-27.7 -191,-21.95 -300,-86.97 -131.99,-78.71 -30.2,-56.59 -203.96,-132.03 -146.95,-63.76 -378,-53.9 -543.02,-108.84l-430.8 -76.21c-8.82,-37.41 77.07,71.79 37.96,-61.91l-1013.67 -200.91c-333.38,-78.46 -148.78,-92.65 -617.17,-95.26 -988.74,-5.42 -1960.28,56.02 -2850.23,332.41l-1187.77 407.36c-155.06,63.63 -45.06,58.02 -232.08,144.89 -108.3,50.27 -159.14,66.31 -260.26,120.03l-1867.8 1319.36c-276.64,211.89 -475.47,509.69 -745.87,736.13 -83.97,70.3 -48.16,34.82 -84.15,143.42 -58.41,176.18 -231.99,314.62 -343.6,448.54 -379.89,455.79 -99.78,254.63 -354.97,594.65 -83.7,111.46 -13.4,0.18 -69.64,117.03 -153.1,317.98 -332.63,597.83 -460.76,941.88 -6.19,16.67 -42.44,119.63 -51.89,139.92 -3.76,8.1 -8.82,17.78 -12.77,25.63l-28.23 47.18c-44.98,84.41 -6.86,-11.52 -37.31,72.8 -35.58,98.52 -36.78,191.82 -79.18,304.77l-267.87 791.06c-47.41,120.3 -171.84,1790.15 -164.57,1882.46l26.43 477.56c-0.05,2.07 1.03,72.14 1.03,72.32l80.95 637.93c21.74,144.84 95.49,790.88 169.6,920.14 133.38,232.71 154.16,549.07 313.63,899.89 70.73,155.66 76.44,278.51 160.79,409.66 81.15,126.07 32.95,9.49 67.03,141.12 41.81,161.39 166.15,250.77 166.15,575.79zm-742.1 4037.45c198.83,-28.14 622.28,-186.02 854.46,-253.86 305.2,-89.2 580.39,-153.23 870.23,-230.57l2555.02 -664.36c215.33,-14.25 515.79,217.17 753.34,318.35 1809.02,770.58 3708.24,851.37 5560.54,303.68 577.03,-170.62 1031.47,-385.1 1513.62,-642.73 104.31,-55.78 247,-127.06 346.11,-189.11 74.69,-46.73 89.03,-63.04 156.63,-106.01l251.67 -165.11c6.63,-4.51 15.86,-10.8 22.54,-15.27l1105.23 -899.86 786.81 -952.04c261.44,-370.35 353.41,-485.68 591.64,-925.03 632.41,-1166.22 828.13,-1985.82 981.72,-3369.73 163.08,-1469.86 -303.87,-3178.74 -977.59,-4437.75l-762.22 -1130.28 -671.35 -730.67c-248.12,-229.66 -158.24,-183.83 -252.56,-275.22l-923.09 -709.67c-201.72,-121.24 -420.28,-288.09 -658.86,-401.79 -238.32,-113.58 -472.02,-232.19 -740.39,-358.08 -2171.23,-1018.63 -5110.3,-722.89 -7107.22,409.95 -1069.4,606.61 -1672.46,1199.69 -2363.66,1996.49 -1880.8,2168.17 -2325.07,5657.36 -1123.78,8378.72 499.03,1130.41 503.78,512.17 187.14,1609.34l-955.98 3440.61z"/>
   <path class="fil1" d="M4046.67 12713.5c444.55,0 2352,-55.55 2629.97,34.19 -77.65,-604.91 -183.25,-970.01 61.12,-1571.51 319.32,-786.01 754.91,-1187.54 1563.8,-1068.5 252.87,37.19 334.42,210.31 426.36,438.15 115.78,286.97 383.22,1026.95 529.23,1255.15 345.93,45.15 3370.72,13.87 3984.54,13.03l3925.93 -48.17c-293.47,-1266.17 -1446.77,-2637.77 -2469.26,-3396.07 -1101.24,-816.75 -2766.89,-1410.86 -4566.71,-1256.64 -3056.42,261.93 -5645.05,2665.38 -6084.98,5600.37zm5210.48 -912.52c163.04,509.37 181.18,507.84 -383.84,1169.7 -208.52,244.23 -257.58,268.25 -56.49,598.09 554.77,910.25 1250.21,1567.3 2294.38,2105.9 698.81,360.45 677.21,322.63 1090.19,-173.12 145.56,-174.75 249.1,-294.73 382.21,-489.14 171.93,-251.13 346.52,-165.01 628.88,-37.19 414.43,187.69 809.07,384.2 1205.41,578.52 227.52,111.57 431.15,147.09 444.55,419 37.64,763.16 -359.01,1280.93 -1035.61,1608.66 -479.94,232.54 -985.55,239.53 -1546.68,107.8 -934.94,-219.49 -1803.88,-588.37 -2481.62,-1043.76 -1016.62,-683.03 -2339.03,-2158.53 -2884.06,-3299.97 -93.01,-194.82 -149.87,-417.98 -237.83,-597.78 -277.97,-89.74 -2185.42,-34.19 -2629.97,-34.19 -265.77,1683.03 65.06,3390.21 924.54,4737.88 205.17,321.7 197.9,219.94 6.31,879.2 -164.21,564.94 -404.76,1320.15 -509.96,1887.51 763.15,-156.36 1595.98,-409.82 2356.09,-610.95 302.47,-80.02 501.14,140.69 1022.21,396.3 352.34,172.81 714.5,300.37 1109.98,405.84 5245.2,1398.84 9875.82,-3573.78 8211.78,-8643.44l-3925.93 48.17c-613.82,0.84 -3638.61,32.12 -3984.54,-13.03z"/>
  </g>
 </g>
</svg>
